<svg id="puzzle_1_" data-name="puzzle (1)" xmlns="http://www.w3.org/2000/svg" width="103" height="103" viewBox="0 0 103 103">
  <path id="Path_270" data-name="Path 270" d="M13.854,48.068a12.235,12.235,0,0,1-.121-1.729,12.017,12.017,0,0,1,24.033.011v.018a1.7,1.7,0,0,0,1.7,1.7h6.944a1.658,1.658,0,0,0,1.658-1.658V32.617a3.433,3.433,0,0,1,5.5-2.745A5.109,5.109,0,0,0,56.779,30.9a5.15,5.15,0,0,0-.13-10.3,5.1,5.1,0,0,0-3.045,1,3.5,3.5,0,0,1-2.5.7,3.442,3.442,0,0,1-3.043-3.416V1.658A1.658,1.658,0,0,0,46.408,0H3.433A3.433,3.433,0,0,0,0,3.433V46.41a1.658,1.658,0,0,0,1.658,1.658Z" fill="#a2ffd0"/>
  <path id="Path_271" data-name="Path 271" d="M273.065,12.523a1.227,1.227,0,0,0,1.283,1.218q.216-.008.434-.008a12.017,12.017,0,0,1,.008,24.033q-.23,0-.458-.008A1.236,1.236,0,0,0,273.065,39v7.407a1.658,1.658,0,0,0,1.658,1.658h13.71a3.515,3.515,0,0,1,2.8,1.335,3.436,3.436,0,0,1,.027,4.161,5.105,5.105,0,0,0-1.026,3.217,5.15,5.15,0,0,0,10.3-.129,5.1,5.1,0,0,0-1-3.044,3.5,3.5,0,0,1-.7-2.5,3.442,3.442,0,0,1,3.415-3.043h17.225a1.658,1.658,0,0,0,1.658-1.658V3.433A3.433,3.433,0,0,0,317.7,0H274.723a1.658,1.658,0,0,0-1.658,1.658Z" transform="translate(-218.132 0)" fill="#bee1ff"/>
  <path id="Path_272" data-name="Path 272" d="M46.778,252.859a12.489,12.489,0,0,1-1.32-.025,12.017,12.017,0,0,1,.892-24q.218,0,.434.008a1.227,1.227,0,0,0,1.284-1.218v-7.432a1.658,1.658,0,0,0-1.658-1.658H32.7a3.514,3.514,0,0,1-2.8-1.336,3.435,3.435,0,0,1-.026-4.16,5.108,5.108,0,0,0,1.027-3.216,5.15,5.15,0,0,0-10.3.127,5.1,5.1,0,0,0,1,3.046,3.5,3.5,0,0,1,.7,2.5,3.443,3.443,0,0,1-3.416,3.043H1.658A1.658,1.658,0,0,0,0,220.192v42.974A3.433,3.433,0,0,0,3.433,266.6H46.409a1.658,1.658,0,0,0,1.658-1.658v-10.86a1.232,1.232,0,0,0-1.289-1.223Z" transform="translate(0 -163.6)" fill="#fff2c7"/>
  <path id="Path_273" data-name="Path 273" d="M252.859,274.331q.008.228.008.457a12.017,12.017,0,0,1-24.033,0q0-.217.008-.433a1.226,1.226,0,0,0-1.217-1.283h-7.432a1.658,1.658,0,0,0-1.658,1.658v13.792a3.436,3.436,0,0,1-2.594,3.331,3.566,3.566,0,0,1-2.967-.634,5.093,5.093,0,0,0-2.832-.976,5.15,5.15,0,1,0-.191,10.3,5.1,5.1,0,0,0,3.045-1,3.5,3.5,0,0,1,2.5-.7,3.442,3.442,0,0,1,3.043,3.416v17.225a1.658,1.658,0,0,0,1.658,1.658h42.975A3.433,3.433,0,0,0,266.6,317.7V274.725a1.658,1.658,0,0,0-1.658-1.658H254.1a1.232,1.232,0,0,0-1.239,1.264Z" transform="translate(-163.6 -218.134)" fill="#ff6488"/>
  <g id="Group_2693" data-name="Group 2693" transform="translate(5.312 5.312)">
    <path id="Path_274" data-name="Path 274" d="M27.961,39.814a1.554,1.554,0,0,1-1.554-1.554V29.676a3.275,3.275,0,0,1,3.271-3.271h8.583a1.554,1.554,0,1,1,0,3.109H29.678a.163.163,0,0,0-.163.162V38.26A1.554,1.554,0,0,1,27.961,39.814Z" transform="translate(-26.407 -26.405)" fill="#00de6f"/>
  </g>
  <g id="Group_2694" data-name="Group 2694" transform="translate(84.279 5.312)">
    <path id="Path_275" data-name="Path 275" d="M430.794,39.816a1.554,1.554,0,0,1-1.554-1.554V29.678a.163.163,0,0,0-.162-.162h-8.584a1.554,1.554,0,1,1,0-3.109h8.584a3.275,3.275,0,0,1,3.271,3.271v8.583A1.554,1.554,0,0,1,430.794,39.816Z" transform="translate(-418.939 -26.407)" fill="#aecafc"/>
  </g>
  <g id="Group_2695" data-name="Group 2695" transform="translate(84.279 84.279)">
    <path id="Path_276" data-name="Path 276" d="M429.08,432.349H420.5a1.554,1.554,0,0,1,0-3.109h8.583a.163.163,0,0,0,.162-.162v-8.584a1.554,1.554,0,1,1,3.109,0v8.584A3.274,3.274,0,0,1,429.08,432.349Z" transform="translate(-418.942 -418.94)" fill="#e61243"/>
  </g>
  <g id="Group_2696" data-name="Group 2696" transform="translate(5.312 84.279)">
    <path id="Path_277" data-name="Path 277" d="M38.261,432.349H29.677a3.275,3.275,0,0,1-3.271-3.271v-8.583a1.554,1.554,0,1,1,3.109,0v8.583a.163.163,0,0,0,.163.162h8.584a1.554,1.554,0,0,1,0,3.109Z" transform="translate(-26.406 -418.94)" fill="#f7c770"/>
  </g>
  <g id="Group_2697" data-name="Group 2697" transform="translate(56.589 0)">
    <path id="Path_278" data-name="Path 278" d="M476.006,0h-4.767a3.433,3.433,0,0,1,3.433,3.433V46.409a1.658,1.658,0,0,1-1.658,1.658h4.767a1.658,1.658,0,0,0,1.658-1.658V3.433A3.433,3.433,0,0,0,476.006,0Z" transform="translate(-433.028)" fill="#aecafc"/>
    <path id="Path_279" data-name="Path 279" d="M290.244,238.933h0Z" transform="translate(-281.299 -190.866)" fill="#aecafc"/>
  </g>
  <path id="Path_280" data-name="Path 280" d="M477.782,273.068h-4.767a1.658,1.658,0,0,1,1.658,1.658V317.7a3.433,3.433,0,0,1-3.433,3.433h4.767a3.433,3.433,0,0,0,3.433-3.433V274.726a1.658,1.658,0,0,0-1.658-1.658Z" transform="translate(-376.44 -218.134)" fill="#e61243"/>
</svg>
