<svg xmlns="http://www.w3.org/2000/svg" width="116" height="116.12" viewBox="0 0 116 116.12">
  <g id="chat_1_" data-name="chat (1)" transform="translate(-0.264)">
    <g id="Group_2825" data-name="Group 2825" transform="translate(0.264 0)">
      <path id="Path_380" data-name="Path 380" d="M104.6,0H25.466a7.889,7.889,0,0,0-7.889,7.89v14.3a7.89,7.89,0,0,0,7.89,7.89H33.1l1.3,1.3h9.242l1.559-1.3h59.4a7.889,7.889,0,0,0,7.889-7.89V7.89A7.889,7.889,0,0,0,104.6,0Z" transform="translate(-13.65 0)" fill="#00de6f"/>
      <g id="Group_2811" data-name="Group 2811" transform="translate(17.927 0)">
        <path id="Path_381" data-name="Path 381" d="M79.495,132.616a1.635,1.635,0,0,1,1.609,1.925l-1.779,9.88a.917.917,0,0,0,1.534.828l12.835-12.184a1.635,1.635,0,0,1,1.126-.449Z" transform="translate(-79.308 -102.539)" fill="#00c462"/>
        <path id="Path_382" data-name="Path 382" d="M385.925,0H371.159a7.89,7.89,0,0,1,7.89,7.89v14.3a7.889,7.889,0,0,1-7.889,7.89H364.3a1.636,1.636,0,0,1,1.126.449l12.835,12.184a.917.917,0,0,0,1.534-.828L378.019,32a1.635,1.635,0,0,1,1.609-1.925h6.3a7.89,7.89,0,0,0,7.89-7.89V7.89A7.89,7.89,0,0,0,385.925,0Z" transform="translate(-299.668 0)" fill="#00c462"/>
      </g>
      <g id="Group_2821" data-name="Group 2821" transform="translate(0 50.922)">
        <g id="Group_2816" data-name="Group 2816" transform="translate(0 0)">
          <g id="Group_2815" data-name="Group 2815">
            <g id="Group_2813" data-name="Group 2813">
              <path id="Path_383" data-name="Path 383" d="M28.712,301.547a9.83,9.83,0,0,1,9.168-11.555,9.83,9.83,0,0,0,9.324-9.833l-.046-28.081a27.03,27.03,0,0,0-.305-3.966,25.924,25.924,0,0,0-1.042-4.331H34.737a14.546,14.546,0,0,0-14.546,14.546v43.907h8.644Z" transform="translate(-15.672 -239.413)" fill="#d5985c"/>
              <g id="Group_2812" data-name="Group 2812" transform="translate(12.116 4.367)">
                <path id="Path_384" data-name="Path 384" d="M89.565,271.347l-3.011-6.321a2.87,2.87,0,0,1-.279-1.2l-.057-4.624a24.725,24.725,0,0,0-5.382-15.421H69.623A6.16,6.16,0,0,0,69.91,245a24.712,24.712,0,0,1,1.362,8.107l.043,26.542a9.291,9.291,0,0,1-8.813,9.294,9.291,9.291,0,0,0-8.666,10.923l.426,2.37H67.969l-1.052-6.652a3.708,3.708,0,0,1,3.665-4.287l8.588.006a4.865,4.865,0,0,0,4.872-4.864v-8.051a2.9,2.9,0,0,1,2.885-2.93,2.874,2.874,0,0,0,2.638-4.109Z" transform="translate(-53.687 -243.78)" fill="#c38959"/>
              </g>
              <path id="Path_385" data-name="Path 385" d="M15.987,262.992v-3.556a6.126,6.126,0,0,1,2.375-4.843l6.106-4.728a9.317,9.317,0,0,0,3.613-7.367,9.3,9.3,0,0,1,3.585-7.342c-.05-.629-.122-1.278-.221-1.931-.5-3.3-1.264-4.58-1.439-5.9h0a6.573,6.573,0,0,1,.083-2.192l-.728-.607H20.491A20.22,20.22,0,0,0,.7,248.88l4.085,19.561h5.755a5.449,5.449,0,0,0,5.449-5.449Z" transform="translate(-0.264 -224.527)" fill="#6f6f72"/>
              <path id="Path_386" data-name="Path 386" d="M140.606,224.527h-15.79a6.29,6.29,0,0,0-.76,5.584,24.68,24.68,0,0,1,1.325,6.819,9.3,9.3,0,0,1,7.471-3.749h1.174a7.617,7.617,0,0,0,7.617-7.617A1.036,1.036,0,0,0,140.606,224.527Z" transform="translate(-95.717 -224.527)" fill="#1d1d1d"/>
            </g>
            <path id="Path_387" data-name="Path 387" d="M14.664,475.6,4.7,474.643a2.664,2.664,0,0,0-2.919,2.651v3.147a2.664,2.664,0,0,0,2.664,2.664H17.156l.737-1.115V479.87A4.438,4.438,0,0,0,14.664,475.6Z" transform="translate(-1.438 -417.908)" fill="#ff6488"/>
            <g id="Group_2814" data-name="Group 2814" transform="translate(11.925 57.569)">
              <path id="Path_388" data-name="Path 388" d="M69,479.918l-16.151-1.555a4.442,4.442,0,0,1,3.794,4.393v3.236h12.1a2.664,2.664,0,0,0,2.664-2.664v-.759A2.664,2.664,0,0,0,69,479.918Z" transform="translate(-52.844 -478.363)" fill="#e61243"/>
            </g>
          </g>
        </g>
        <g id="Group_2820" data-name="Group 2820" transform="translate(67.723)">
          <g id="Group_2819" data-name="Group 2819">
            <g id="Group_2817" data-name="Group 2817" transform="translate(0 0)">
              <path id="Path_389" data-name="Path 389" d="M320.749,302.233h8.7V287.346a38.9,38.9,0,0,1,.822-7.954l1.755-8.4,1.509-7.225A20.206,20.206,0,0,0,326.3,243.78H307.882A24.724,24.724,0,0,0,302.5,259.2l-.057,4.624a2.877,2.877,0,0,1-.279,1.2l-3.011,6.321a2.873,2.873,0,0,0,2.638,4.109,2.9,2.9,0,0,1,2.884,2.93v8.051a4.864,4.864,0,0,0,4.872,4.864l8.588-.006a3.708,3.708,0,0,1,3.665,4.287Z" transform="translate(-298.87 -239.414)" fill="#ffddce"/>
              <path id="Path_390" data-name="Path 390" d="M416.178,243.779h-3.371a20.188,20.188,0,0,1,7.236,19.987l-3.263,15.626a38.9,38.9,0,0,0-.822,7.954v14.887h14.766V258.325A14.546,14.546,0,0,0,416.178,243.779Z" transform="translate(-386.966 -239.413)" fill="#ffcbbe"/>
              <path id="Path_391" data-name="Path 391" d="M339.428,259.049l.615-2.943,1.509-7.225a20.213,20.213,0,0,0-19.793-24.353H310.275a1.037,1.037,0,0,0-1.037,1.037,7.617,7.617,0,0,0,7.617,7.617h1.174a9.317,9.317,0,0,1,9.317,9.317,9.317,9.317,0,0,0,3.613,7.367l6.107,4.728A6.123,6.123,0,0,1,339.428,259.049Z" transform="translate(-306.887 -224.528)" fill="#e49542"/>
            </g>
            <g id="Group_2818" data-name="Group 2818" transform="translate(13.284)">
              <path id="Path_392" data-name="Path 392" d="M372.21,224.527H357.444a20.22,20.22,0,0,1,19.793,24.353l-1.509,7.225a6.124,6.124,0,0,1,.986,3.331v3.556a5.449,5.449,0,0,0,5.449,5.449h5.755L392,248.88A20.219,20.219,0,0,0,372.21,224.527Z" transform="translate(-357.444 -224.527)" fill="#e27d47"/>
            </g>
            <path id="Path_393" data-name="Path 393" d="M389.109,481.238l-9.378.9a2.664,2.664,0,0,0-2.408,2.651v.759a2.664,2.664,0,0,0,2.664,2.664H392.7l.189-.6v-2.36A4.025,4.025,0,0,0,389.109,481.238Z" transform="translate(-359.53 -423.017)" fill="#bee1ff"/>
            <path id="Path_394" data-name="Path 394" d="M442.451,474.643l-16.1,1.55a3.989,3.989,0,0,1,4.255,3.978v2.934h12.1a2.664,2.664,0,0,0,2.664-2.664v-3.148A2.664,2.664,0,0,0,442.451,474.643Z" transform="translate(-397.436 -417.908)" fill="#aecafc"/>
          </g>
        </g>
      </g>
      <g id="Group_2824" data-name="Group 2824" transform="translate(15.559 8.404)">
        <g id="Group_2822" data-name="Group 2822">
          <path id="Path_395" data-name="Path 395" d="M152,40.559H70.617a1.752,1.752,0,0,1,0-3.5H152a1.752,1.752,0,1,1,0,3.5Z" transform="translate(-68.865 -37.055)" fill="#f0f7ff"/>
        </g>
        <g id="Group_2823" data-name="Group 2823" transform="translate(0 8.814)">
          <path id="Path_396" data-name="Path 396" d="M111.307,79.424H70.617a1.752,1.752,0,0,1,0-3.5h40.689a1.752,1.752,0,1,1,0,3.5Z" transform="translate(-68.865 -75.92)" fill="#f0f7ff"/>
        </g>
      </g>
    </g>
  </g>
</svg>
