<svg xmlns="http://www.w3.org/2000/svg" width="116" height="103" viewBox="0 0 116 103">
  <g id="self-awareness" transform="translate(0 -29.382)">
    <path id="Path_252" data-name="Path 252" d="M39.409,29.559A34.233,34.233,0,0,0,5.422,66.536l.7,9.173a2.318,2.318,0,0,1-.338,1.4L3.913,80.143A26.289,26.289,0,0,0,0,93.947a1.272,1.272,0,0,0,1.267,1.276H7.03l2.615,15.307a5.437,5.437,0,0,0,5.326,4.538l15.366.06a4.457,4.457,0,0,1,4.423,4.473v9.383a3.52,3.52,0,0,0,3.528,3.532l10.744-.04,2.166-1.5H66.212l.72,1.429h.06L66.975,100.3l7.1-23.774c6.989-23.4-10.406-46.965-34.668-46.965Z" transform="translate(0 -0.135)" fill="#ff6488"/>
    <path id="Path_253" data-name="Path 253" d="M44.181,139.673V128.817a10.047,10.047,0,0,0-9.971-10.082l-9.818-.039a5.437,5.437,0,0,1-5.326-4.538l-2-11.723a4.294,4.294,0,0,0-4.224-3.585H10.688a1.272,1.272,0,0,1-1.267-1.276,26.292,26.292,0,0,1,3.913-13.8l1.875-3.039a2.319,2.319,0,0,0,.338-1.4l-.7-9.173a34.367,34.367,0,0,1,10.364-27.4A34.378,34.378,0,0,0,5.422,76.634l.7,9.173a2.318,2.318,0,0,1-.338,1.4L3.913,90.241A26.289,26.289,0,0,0,0,104.046a1.272,1.272,0,0,0,1.267,1.276H7.03L9.645,120.63a5.437,5.437,0,0,0,5.326,4.538l15.366.06a4.457,4.457,0,0,1,4.423,4.473v9.383a3.519,3.519,0,0,0,3.528,3.532l7.4-.045a3.532,3.532,0,0,1-1.505-2.9Z" transform="translate(0 -10.234)" fill="#e61243"/>
    <path id="Path_254" data-name="Path 254" d="M244.454,79.966l-1.875-3.039a2.32,2.32,0,0,1-.338-1.4l.7-9.173a34.232,34.232,0,0,0-33.986-36.977c-24.262,0-41.657,23.565-34.668,46.965l7.1,23.774.008,32.195h.025l2.452-2.5h14.143l1.308,2.518,10.751.009a3.52,3.52,0,0,0,3.528-3.532v-9.383a4.457,4.457,0,0,1,4.423-4.473l15.366-.06a5.437,5.437,0,0,0,5.326-4.538l2.615-15.307H247.1a1.272,1.272,0,0,0,1.267-1.276,26.294,26.294,0,0,0-3.913-13.805Z" transform="translate(-132.366)" fill="#bee1ff"/>
    <path id="Path_255" data-name="Path 255" d="M199.342,117.061l7.1-23.774a36.8,36.8,0,0,0-16.094-41.952,36.77,36.77,0,0,0-16.035,41.952l7.1,23.774v32.067l8.964.032,8.964-.042V117.061Z" transform="translate(-132.382 -16.786)" fill="#fff2c7"/>
    <path id="Path_256" data-name="Path 256" d="M104.623,264.839l10.835-9.145a1.153,1.153,0,0,1,1.9.891v4.738h16.355a1.192,1.192,0,0,1,1.188,1.2v6.421a1.192,1.192,0,0,1-1.188,1.2H117.354v4.738a1.153,1.153,0,0,1-1.9.891l-10.835-9.145a1.168,1.168,0,0,1,0-1.782Z" transform="translate(-79.858 -172.838)" fill="#bee1ff"/>
    <path id="Path_257" data-name="Path 257" d="M316.378,124.363l-10.835-9.145a1.153,1.153,0,0,0-1.9.891v4.738H287.292a1.192,1.192,0,0,0-1.188,1.2v6.421a1.192,1.192,0,0,0,1.188,1.2h16.355V134.4a1.153,1.153,0,0,0,1.9.891l10.835-9.145A1.168,1.168,0,0,0,316.378,124.363Z" transform="translate(-219.245 -65.424)" fill="#e61243"/>
  </g>
</svg>
